<svg aria-hidden="true" style="position: absolute; width: 0; height: 0; overflow: hidden;" version="1.1" xmlns="http://www.w3.org/2000/svg" xmlns:xlink="http://www.w3.org/1999/xlink">
<defs>
<symbol id="icon-SVG-10" viewBox="0 0 32 32">
<path fill="none" stroke="currentColor" style="stroke: var(--color1, currentColor)" stroke-linejoin="round" stroke-linecap="round" stroke-miterlimit="4" stroke-width="2.6667" d="M29.333 9.333l-11.333 11.333-6.667-6.667-8.667 8.667"></path>
<path fill="none" stroke="currentColor" style="stroke: var(--color1, currentColor)" stroke-linejoin="round" stroke-linecap="round" stroke-miterlimit="4" stroke-width="2.6667" d="M21.333 9.333h8v8"></path>
</symbol>
<symbol id="icon-SVG-9" viewBox="0 0 32 32">
<path fill="none" stroke="currentColor" style="stroke: var(--color1, currentColor)" stroke-linejoin="round" stroke-linecap="round" stroke-miterlimit="4" stroke-width="2.5397" d="M20.775 27.886v-2.54c0-1.347-0.535-2.639-1.488-3.592s-2.244-1.488-3.592-1.488h-7.619c-1.347 0-2.639 0.535-3.592 1.488s-1.488 2.245-1.488 3.592v2.54"></path>
<path fill="none" stroke="currentColor" style="stroke: var(--color1, currentColor)" stroke-linejoin="round" stroke-linecap="round" stroke-miterlimit="4" stroke-width="2.5397" d="M11.886 15.187c2.805 0 5.079-2.274 5.079-5.079s-2.274-5.079-5.079-5.079c-2.805 0-5.079 2.274-5.079 5.079s2.274 5.079 5.079 5.079z"></path>
<path fill="none" stroke="currentColor" style="stroke: var(--color1, currentColor)" stroke-linejoin="round" stroke-linecap="round" stroke-miterlimit="4" stroke-width="2.5397" d="M28.394 27.886v-2.54c-0.001-1.125-0.375-2.219-1.065-3.108s-1.655-1.525-2.745-1.806"></path>
<path fill="none" stroke="currentColor" style="stroke: var(--color1, currentColor)" stroke-linejoin="round" stroke-linecap="round" stroke-miterlimit="4" stroke-width="2.5397" d="M20.775 5.194c1.093 0.28 2.061 0.915 2.753 1.806s1.067 1.987 1.067 3.115c0 1.128-0.375 2.224-1.067 3.114s-1.66 1.526-2.753 1.806"></path>
</symbol>
<symbol id="icon-SVG-8" viewBox="0 0 32 32">
<path fill="none" stroke="currentColor" style="stroke: var(--color2, currentColor)" stroke-linejoin="round" stroke-linecap="round" stroke-miterlimit="4" stroke-width="2.5098" d="M24.075 11.169c2.079 0 3.765-1.685 3.765-3.765s-1.685-3.765-3.765-3.765c-2.079 0-3.765 1.686-3.765 3.765s1.686 3.765 3.765 3.765z"></path>
<path fill="none" stroke="currentColor" style="stroke: var(--color2, currentColor)" stroke-linejoin="round" stroke-linecap="round" stroke-miterlimit="4" stroke-width="2.5098" d="M9.017 19.953c2.079 0 3.765-1.686 3.765-3.765s-1.685-3.765-3.765-3.765c-2.079 0-3.765 1.685-3.765 3.765s1.686 3.765 3.765 3.765z"></path>
<path fill="none" stroke="currentColor" style="stroke: var(--color2, currentColor)" stroke-linejoin="round" stroke-linecap="round" stroke-miterlimit="4" stroke-width="2.5098" d="M24.075 28.737c2.079 0 3.765-1.686 3.765-3.765s-1.685-3.765-3.765-3.765c-2.079 0-3.765 1.685-3.765 3.765s1.686 3.765 3.765 3.765z"></path>
<path fill="none" stroke="currentColor" style="stroke: var(--color2, currentColor)" stroke-linejoin="round" stroke-linecap="round" stroke-miterlimit="4" stroke-width="2.5098" d="M12.267 18.083l8.571 4.995"></path>
<path fill="none" stroke="currentColor" style="stroke: var(--color2, currentColor)" stroke-linejoin="round" stroke-linecap="round" stroke-miterlimit="4" stroke-width="2.5098" d="M20.825 9.299l-8.558 4.995"></path>
</symbol>
<symbol id="icon-SVG-7" viewBox="0 0 32 32">
<path fill="none" stroke="currentColor" style="stroke: var(--color2, currentColor)" stroke-linejoin="round" stroke-linecap="round" stroke-miterlimit="4" stroke-width="2.5098" d="M10.836 26.227c2.395 1.229 5.15 1.561 7.769 0.938s4.929-2.161 6.514-4.336c1.585-2.176 2.341-4.846 2.132-7.529s-1.37-5.204-3.274-7.108c-1.903-1.903-4.424-3.064-7.108-3.274s-5.354 0.547-7.529 2.132-3.713 3.895-4.336 6.514c-0.623 2.619-0.29 5.374 0.938 7.769l-2.51 7.404 7.404-2.51z"></path>
</symbol>
<symbol id="icon-SVG-6" viewBox="0 0 32 32">
<path fill="none" stroke="currentColor" style="stroke: var(--color2, currentColor)" stroke-linejoin="round" stroke-linecap="round" stroke-miterlimit="4" stroke-width="2.5098" d="M25.349 18.698c1.87-1.832 3.765-4.028 3.765-6.902 0-1.831-0.727-3.586-2.022-4.88s-3.050-2.022-4.88-2.022c-2.209 0-3.765 0.627-5.647 2.51-1.882-1.882-3.438-2.51-5.647-2.51-1.831 0-3.586 0.727-4.88 2.022s-2.022 3.050-2.022 4.88c0 2.886 1.882 5.082 3.765 6.902l8.784 8.784 8.784-8.784z"></path>
</symbol>
<symbol id="icon-SVG-5" viewBox="0 0 34 32">
<path fill="none" stroke="currentColor" style="stroke: var(--color3, currentColor)" stroke-linejoin="round" stroke-linecap="round" stroke-miterlimit="4" stroke-width="2.6667" d="M9.6 10.667c0-2.122 0.843-4.157 2.343-5.657s3.535-2.343 5.657-2.343c2.122 0 4.157 0.843 5.657 2.343s2.343 3.535 2.343 5.657c0 9.333 4 12 4 12h-24c0 0 4-2.667 4-12z"></path>
<path fill="none" stroke="currentColor" style="stroke: var(--color3, currentColor)" stroke-linejoin="round" stroke-linecap="round" stroke-miterlimit="4" stroke-width="2.6667" d="M15.334 28c0.223 0.406 0.551 0.744 0.95 0.98s0.853 0.36 1.317 0.36c0.463 0 0.918-0.124 1.317-0.36s0.727-0.574 0.95-0.98"></path>
</symbol>
<symbol id="icon-Group-2-2" viewBox="0 0 29 32">
<path fill="currentColor" style="fill: var(--color3, currentColor)" d="M16.825 15.385c0 4.165 0.937 6.77 1.832 8.307h-13.561c0.895-1.537 1.832-4.142 1.832-8.307 0-1.434 0.553-2.731 1.449-3.672s2.133-1.52 3.5-1.52c1.367 0 2.603 0.58 3.499 1.52s1.449 2.238 1.449 3.672zM18.804 15.385c0-2.007-0.777-3.826-2.029-5.14s-2.986-2.129-4.899-2.129c-1.913 0-3.646 0.815-4.899 2.129s-2.029 3.133-2.029 5.14c0 6.362-2.368 8.356-2.537 8.488-0.448 0.32-0.567 0.96-0.266 1.434 0.19 0.298 0.501 0.46 0.823 0.462h17.814c0.546 0 0.99-0.465 0.99-1.038 0-0.352-0.166-0.662-0.425-0.853-0.174-0.135-2.544-2.129-2.544-8.493zM12.732 28.364c-0.138 0.248-0.355 0.414-0.602 0.483s-0.515 0.038-0.751-0.105c-0.16-0.098-0.28-0.23-0.355-0.371-0.271-0.498-0.875-0.672-1.35-0.387s-0.64 0.918-0.369 1.416c0.247 0.456 0.617 0.855 1.082 1.138 0.709 0.432 1.519 0.52 2.253 0.316s1.394-0.704 1.805-1.448c0.274-0.496 0.113-1.132-0.359-1.42s-1.079-0.118-1.353 0.377z"></path>
<path fill="currentColor" style="fill: var(--color4, currentColor)" d="M28.8 3.539c0 1.955-1.573 3.539-3.514 3.539s-3.514-1.585-3.514-3.539c0-1.955 1.573-3.539 3.514-3.539s3.514 1.585 3.514 3.539z"></path>
</symbol>
<symbol id="icon-SVG-4" viewBox="0 0 32 32">
  <path fill="none" stroke="currentColor" style="stroke: var(--color1, currentColor)" stroke-linejoin="round" stroke-linecap="round" stroke-miterlimit="4" stroke-width="2.6667" d="M28.56 14.563c0.239-0.105 0.441-0.278 0.583-0.498s0.215-0.475 0.212-0.736c-0.003-0.261-0.082-0.515-0.228-0.732s-0.352-0.385-0.593-0.485l-11.428-5.205c-0.347-0.158-0.725-0.24-1.107-0.24s-0.759 0.082-1.107 0.24l-11.427 5.2c-0.237 0.104-0.439 0.275-0.581 0.492s-0.217 0.47-0.217 0.73c0 0.259 0.076 0.513 0.217 0.73s0.344 0.388 0.581 0.492l11.427 5.211c0.347 0.158 0.725 0.24 1.107 0.24s0.759-0.082 1.107-0.24l11.453-5.197z"/>
  <path fill="none" stroke="currentColor" style="stroke: var(--color1, currentColor)" stroke-linejoin="round" stroke-linecap="round" stroke-miterlimit="4" stroke-width="2.6667" d="M29.333 13.333v8"/>
  <path fill="none" stroke="currentColor" style="stroke: var(--color1, currentColor)" stroke-linejoin="round" stroke-linecap="round" stroke-miterlimit="4" stroke-width="2.6667" d="M8 16.667v4.667c0 1.061 0.843 2.078 2.343 2.828s3.535 1.172 5.657 1.172 4.157-0.422 5.657-1.172c1.5-0.75 2.343-1.768 2.343-2.828v-4.667"/>
</symbol>
<symbol id="icon-SVG-3" viewBox="0 0 32 32">
  <path fill="none" stroke="currentColor" style="stroke: var(--color1, currentColor)" stroke-linejoin="round" stroke-linecap="round" stroke-miterlimit="4" stroke-width="2.6667" d="M10.667 2.667v5.333"/>
  <path fill="none" stroke="currentColor" style="stroke: var(--color1, currentColor)" stroke-linejoin="round" stroke-linecap="round" stroke-miterlimit="4" stroke-width="2.6667" d="M21.333 2.667v5.333"/>
  <path fill="none" stroke="currentColor" style="stroke: var(--color1, currentColor)" stroke-linejoin="round" stroke-linecap="round" stroke-miterlimit="4" stroke-width="2.6667" d="M25.333 5.333h-18.667c-1.473 0-2.667 1.194-2.667 2.667v18.667c0 1.473 1.194 2.667 2.667 2.667h18.667c1.473 0 2.667-1.194 2.667-2.667v-18.667c0-1.473-1.194-2.667-2.667-2.667z"/>
  <path fill="none" stroke="currentColor" style="stroke: var(--color1, currentColor)" stroke-linejoin="round" stroke-linecap="round" stroke-miterlimit="4" stroke-width="2.6667" d="M4 13.333h24"/>
</symbol>
<symbol id="icon-SVG-2" viewBox="0 0 32 32">
  <path fill="none" stroke="currentColor" style="stroke: var(--color1, currentColor)" stroke-linejoin="round" stroke-linecap="round" stroke-miterlimit="4" stroke-width="2.6667" d="M10.533 26.667c2.545 1.305 5.472 1.659 8.255 0.997s5.237-2.296 6.921-4.608c1.684-2.311 2.488-5.149 2.265-8s-1.456-5.53-3.478-7.552c-2.022-2.022-4.701-3.256-7.552-3.478s-5.688 0.581-8 2.265c-2.312 1.684-3.946 4.139-4.607 6.921s-0.308 5.71 0.997 8.254l-2.667 7.867 7.867-2.667z"/>
</symbol>
<symbol id="icon-SVG-1" viewBox="0 0 32 32">
  <path fill="none" stroke="currentColor" stroke-linejoin="round" stroke-linecap="round" stroke-miterlimit="4" stroke-width="2.6667" d="M2.667 4h8c1.415 0 2.771 0.562 3.771 1.562s1.562 2.357 1.562 3.771v18.667c0-1.061-0.421-2.078-1.172-2.828s-1.768-1.172-2.828-1.172h-9.333v-20z"/>
  <path fill="none" stroke="currentColor" stroke-linejoin="round" stroke-linecap="round" stroke-miterlimit="4" stroke-width="2.6667" d="M29.333 4h-8c-1.415 0-2.771 0.562-3.771 1.562s-1.562 2.357-1.562 3.771v18.667c0-1.061 0.421-2.078 1.172-2.828s1.768-1.172 2.828-1.172h9.333v-20z"/>
</symbol>
<symbol id="icon-SVG" viewBox="0 0 32 32">
  <path fill="none" stroke="currentColor" style="stroke: var(--color5, currentColor)" stroke-linejoin="round" stroke-linecap="round" stroke-miterlimit="4" stroke-width="2.6667" d="M12 4h-6.667c-0.736 0-1.333 0.597-1.333 1.333v9.333c0 0.736 0.597 1.333 1.333 1.333h6.667c0.736 0 1.333-0.597 1.333-1.333v-9.333c0-0.736-0.597-1.333-1.333-1.333z"/>
  <path fill="none" stroke="currentColor" style="stroke: var(--color5, currentColor)" stroke-linejoin="round" stroke-linecap="round" stroke-miterlimit="4" stroke-width="2.6667" d="M26.667 4h-6.667c-0.736 0-1.333 0.597-1.333 1.333v4c0 0.736 0.597 1.333 1.333 1.333h6.667c0.736 0 1.333-0.597 1.333-1.333v-4c0-0.736-0.597-1.333-1.333-1.333z"/>
  <path fill="none" stroke="currentColor" style="stroke: var(--color5, currentColor)" stroke-linejoin="round" stroke-linecap="round" stroke-miterlimit="4" stroke-width="2.6667" d="M26.667 16h-6.667c-0.736 0-1.333 0.597-1.333 1.333v9.333c0 0.736 0.597 1.333 1.333 1.333h6.667c0.736 0 1.333-0.597 1.333-1.333v-9.333c0-0.736-0.597-1.333-1.333-1.333z"/>
  <path fill="none" stroke="currentColor" style="stroke: var(--color5, currentColor)" stroke-linejoin="round" stroke-linecap="round" stroke-miterlimit="4" stroke-width="2.6667" d="M12 21.333h-6.667c-0.736 0-1.333 0.597-1.333 1.333v4c0 0.736 0.597 1.333 1.333 1.333h6.667c0.736 0 1.333-0.597 1.333-1.333v-4c0-0.736-0.597-1.333-1.333-1.333z"/>
</symbol>
<symbol id="icon-search-1" viewBox="0 0 32 32">
<path fill="currentColor" style="fill: var(--color6, currentColor)" d="M21.045 20.927c-0.043 0.033-0.086 0.070-0.127 0.111s-0.077 0.082-0.111 0.127c-1.607 1.55-3.794 2.502-6.204 2.502-2.47 0-4.705-0.999-6.325-2.619s-2.619-3.855-2.619-6.325c0-2.47 0.999-4.705 2.619-6.325s3.855-2.619 6.325-2.619c2.47 0 4.705 0.999 6.325 2.619s2.619 3.855 2.619 6.325c0 2.41-0.952 4.596-2.503 6.205zM28.285 26.597l-4.696-4.696c1.573-1.968 2.515-4.463 2.515-7.179 0-3.175-1.288-6.052-3.368-8.132s-4.956-3.368-8.132-3.368c-3.175 0-6.052 1.288-8.132 3.368s-3.368 4.957-3.368 8.132c0 3.175 1.288 6.051 3.368 8.132s4.957 3.368 8.132 3.368c2.715 0 5.211-0.942 7.179-2.515l4.696 4.696c0.5 0.5 1.308 0.5 1.807 0s0.5-1.308 0-1.807z"></path>
</symbol>
<symbol id="icon-Logo-1-1" viewBox="0 0 28 32">
<path fill="#253985" style="fill: var(--color7, #253985)" d="M1.946 4.397c0-0.061 0.063-0.22 0.314-0.366l7.659-2.992c0.753-0.305 2.361-0.916 2.762-0.916 0.502 0 0.753 0.183 3.076 1.038 1.858 0.684 5.713 2.198 7.408 2.87 0.105 0.102 0.251 0.354 0 0.55s-0.9 0.366-1.193 0.428v4.092c0 0.023-0.001 0.042-0.003 0.059 0.001 0.001 0.002 0.001 0.003 0.002 0.314 0.183 0.502 0.427 0.628 0.733s0.188 1.771 0.188 2.137c0 0.293-0.46 0.529-0.565 0.55-0.167 0.041-0.552 0.122-0.753 0.122-0.251 0-0.565-0.061-0.816-0.244s-0.314-0.428-0.251-1.588c0.050-0.928 0.607-1.567 0.879-1.771 0.042-0.896 0.113-2.773 0.063-3.114-0.063-0.427-0.188-0.366-0.251-0.427-0.050-0.049-0.607 0.102-0.879 0.183-1.046 0.366-3.214 1.136-3.516 1.282-0.377 0.183-3.39 1.527-4.269 1.466-0.703-0.049-1.883-0.509-2.386-0.733l-5.399-2.198c-0.732-0.305-2.235-0.928-2.386-0.977s-0.272-0.143-0.314-0.183z"></path>
<path fill="none" stroke="#253985" style="stroke: var(--color7, #253985)" stroke-linejoin="miter" stroke-linecap="butt" stroke-miterlimit="4" stroke-width="1" d="M2.26 4.031c-0.251 0.147-0.314 0.305-0.314 0.366 0.042 0.041 0.163 0.134 0.314 0.183s1.653 0.672 2.386 0.977l5.399 2.198c0.502 0.224 1.683 0.684 2.386 0.733 0.879 0.061 3.892-1.282 4.269-1.466 0.301-0.147 2.469-0.916 3.516-1.282 0.272-0.081 0.829-0.232 0.879-0.183 0.063 0.061 0.188 0 0.251 0.427 0.050 0.342-0.021 2.219-0.063 3.115-0.272 0.204-0.829 0.843-0.879 1.771-0.063 1.16 0 1.405 0.251 1.588s0.565 0.244 0.816 0.244c0.201 0 0.586-0.082 0.753-0.122 0.105-0.020 0.565-0.257 0.565-0.55 0-0.366-0.063-1.832-0.188-2.137s-0.314-0.55-0.628-0.733 0 0.305 0-0.061c0-0.293 0-1.669 0-2.26v-1.832c0.293-0.061 0.942-0.232 1.193-0.428s0.105-0.448 0-0.55c-1.695-0.672-5.55-2.186-7.408-2.87-2.323-0.855-2.574-1.038-3.076-1.038-0.402 0-2.009 0.611-2.762 0.916l-7.659 2.992z"></path>
<path fill="#ffbc00" style="fill: var(--color8, #ffbc00)" d="M5.399 10.137c-0.063-0.611 0.063-1.099 0.628-2.321 0.1-0.098 0.209-0.081 0.251-0.061 0 0 0.364 0.085 2.323 0.916 2.448 1.038 3.139 1.099 4.081 1.099s2.072-0.427 3.578-0.977c1.507-0.55 1.883-0.916 2.135-0.855s0.439 0.672 0.439 0.733 0.439 1.893 0.126 3.542c-0.251 1.319-0.774 2.585-1.005 3.053-0.146 0.305-0.452 0.977-0.502 1.221-0.063 0.305 0 0.366 0.251 0.55s0.942 0.183 3.076 1.038c2.134 0.855 2.7 1.649 2.762 1.649s0.439 0.611 0.816 0.733c0.377 0.122 0.628 0.061 0.816 0 0.151-0.049 0.398-0.224 0.502-0.305l0.502-0.427c0.435-0.37 0.77-0.407 0.883-0.392 0.149-0.052 0.906 0.019 0.749 2.713-0.188 3.237-1.318 4.519-1.381 4.702s-2.134 3.603-6.529 4.641-8.789 0-9.48-0.244c-0.691-0.244-3.014-0.672-4.52-2.626s-1.946-3.542-1.632-5.802c0.251-1.808 1.946-3.725 2.762-4.458 0.167-0.163 0.603-0.623 1.004-1.16s0.293-1.038 0.188-1.221c-0.105-0.285-0.565-0.831-1.569-0.733s-2.218 0.122-2.7 0.122c-0.67-0.020-2.172-0.073-2.825-0.122s-0.9-0.346-0.942-0.489c-0.021-0.102 0-0.232 0-0.428 0-0.183 0.251-0.366 0.439-0.489l3.265-1.527c0.251-0.122 0.829-0.464 1.13-0.855 0.377-0.489 0.439-0.611 0.377-1.221z"></path>
<path fill="none" stroke="#ffbc00" style="stroke: var(--color8, #ffbc00)" stroke-linejoin="miter" stroke-linecap="butt" stroke-miterlimit="4" stroke-width="1" d="M6.027 7.817c-0.565 1.221-0.691 1.71-0.628 2.321s0 0.733-0.377 1.221c-0.301 0.391-0.879 0.733-1.13 0.855l-3.265 1.527c-0.188 0.122-0.439 0.305-0.439 0.489 0 0.195-0.021 0.326 0 0.428 0.042 0.143 0.289 0.44 0.942 0.489s2.155 0.102 2.825 0.122c0.481 0 1.695-0.024 2.7-0.122s1.465 0.448 1.569 0.733c0.105 0.183 0.213 0.684-0.188 1.221s-0.837 0.997-1.004 1.16c-0.816 0.733-2.511 2.65-2.762 4.458-0.314 2.259 0.126 3.847 1.632 5.802s3.83 2.382 4.52 2.626c0.691 0.244 5.085 1.283 9.48 0.244s6.466-4.458 6.529-4.641c0.063-0.183 1.193-1.466 1.381-4.702s-0.942-2.687-0.753-2.687c0.188 0-0.236-0.18-0.879 0.366-0.502 0.427-0.502 0.427-0.502 0.427-0.105 0.081-0.352 0.256-0.502 0.305-0.188 0.061-0.439 0.122-0.816 0s-0.753-0.733-0.816-0.733c-0.063 0-0.628-0.794-2.762-1.649s-2.825-0.855-3.076-1.038-0.314-0.244-0.251-0.55c0.050-0.244 0.356-0.916 0.502-1.221 0.23-0.468 0.753-1.734 1.005-3.053 0.314-1.649-0.126-3.481-0.126-3.542s-0.188-0.672-0.439-0.733c-0.251-0.061-0.628 0.305-2.135 0.855s-2.637 0.977-3.578 0.977c-0.942 0-1.632-0.061-4.081-1.099-1.959-0.831-2.323-0.916-2.323-0.916-0.042-0.020-0.151-0.037-0.251 0.061z"></path>
<path fill="#fff" style="fill: var(--color9, #fff)" d="M8.915 12.824c0.624 0 1.13-0.492 1.13-1.099s-0.506-1.099-1.13-1.099c-0.624 0-1.13 0.492-1.13 1.099s0.506 1.099 1.13 1.099z"></path>
<path fill="#f96706" style="fill: var(--color10, #f96706)" d="M6.843 12.458c0.251 0.366 1.005 2.26 0.188 2.687-0.251 0.061-1.256 0.122-1.256 0.122s-1.253 0.080-3.139 0c-1.444-0.061-1.695-0.026-2.072-0.183-0.439-0.183-0.502-0.516-0.502-0.794 0-0.244 0.251-0.489 0.565-0.672 0.215-0.126 1.004-0.448 1.381-0.611 0.502-0.244 0.716-0.269 1.821-0.855 1.381-0.733 1.004-0.916 1.256-0.855l0 0c0.311 0.075 0.753 0.183 1.004 0.366s0.502 0.428 0.753 0.794z"></path>
</symbol>
<symbol id="icon-Ellipse-1" viewBox="0 0 32 32">
  <circle cx="16" cy="16" r="15.616" fill="#f95e33" style="fill: var(--color1, #f95e33)" />
</symbol>
<symbol id="icon-SVG-11" viewBox="0 0 32 32">
  <circle cx="16" cy="16" r="13.333" fill="none" stroke="currentColor" style="stroke: var(--color1, currentColor)" stroke-linejoin="round" stroke-linecap="round" stroke-miterlimit="4" stroke-width="2.6667"/>
  <polyline points="16,8 16,16 21.333,18.667" fill="none" stroke="currentColor" style="stroke: var(--color1, currentColor)" stroke-linejoin="round" stroke-linecap="round" stroke-miterlimit="4" stroke-width="2.6667"/>
</symbol>
<symbol id="icon-bell-1" viewBox="0 0 31 32">
<path  d="M21.935 10.667c0 5.348 1.222 8.693 2.388 10.667h-17.68c1.166-1.973 2.388-5.319 2.388-10.667 0-1.841 0.721-3.507 1.889-4.715s2.781-1.952 4.563-1.952c1.782 0 3.394 0.745 4.563 1.952s1.889 2.873 1.889 4.715zM24.516 10.667c0-2.577-1.013-4.912-2.645-6.6s-3.893-2.733-6.387-2.733c-2.494 0-4.754 1.047-6.387 2.733s-2.645 4.023-2.645 6.6c0 8.169-3.088 10.729-3.307 10.899-0.585 0.411-0.739 1.232-0.347 1.841 0.248 0.383 0.653 0.591 1.074 0.593h23.226c0.712 0 1.29-0.597 1.29-1.333 0-0.452-0.217-0.851-0.553-1.095-0.227-0.173-3.317-2.733-3.317-10.905zM16.6 27.331c-0.179 0.319-0.463 0.532-0.785 0.62s-0.671 0.049-0.979-0.135c-0.209-0.125-0.365-0.296-0.463-0.476-0.354-0.64-1.141-0.863-1.76-0.497s-0.835 1.179-0.481 1.819c0.323 0.585 0.804 1.097 1.41 1.461 0.924 0.555 1.981 0.668 2.937 0.405s1.818-0.904 2.354-1.859c0.357-0.637 0.147-1.453-0.468-1.823s-1.406-0.152-1.764 0.484z"></path>
</symbol>
<symbol id="icon-Vector" viewBox="0 0 29 32">
<path d="M21.241 10.299c0 5.717 1.306 9.293 2.553 11.402h-18.899c1.247-2.109 2.553-5.686 2.553-11.402 0-1.968 0.771-3.748 2.019-5.040s2.972-2.087 4.877-2.087c1.905 0 3.628 0.797 4.877 2.087s2.019 3.072 2.019 5.040zM24 10.299c0-2.755-1.083-5.251-2.828-7.055s-4.161-2.922-6.828-2.922c-2.666 0-5.081 1.119-6.828 2.922s-2.828 4.3-2.828 7.055c0 8.733-3.301 11.469-3.535 11.65-0.625 0.439-0.79 1.317-0.371 1.968 0.265 0.409 0.698 0.631 1.148 0.634h24.828c0.761 0 1.379-0.639 1.379-1.425 0-0.483-0.232-0.909-0.592-1.17-0.243-0.185-3.546-2.922-3.546-11.657zM15.538 28.112c-0.192 0.341-0.495 0.569-0.839 0.663s-0.717 0.053-1.047-0.144c-0.223-0.134-0.39-0.316-0.495-0.509-0.378-0.684-1.219-0.922-1.881-0.532s-0.892 1.26-0.515 1.944c0.345 0.626 0.859 1.173 1.508 1.562 0.988 0.593 2.117 0.714 3.139 0.433s1.943-0.966 2.516-1.987c0.382-0.681 0.157-1.554-0.501-1.948s-1.503-0.162-1.885 0.517z"></path>
</symbol>
<svg id="icon-like-active" viewBox="0 0 16 14" fill="none" xmlns="http://www.w3.org/2000/svg">
  <path d="M12.6667 8.33333C13.66 7.36 14.6667 6.19333 14.6667 4.66667C14.6667 3.69421 14.2804 2.76158 13.5927 2.07394C12.9051 1.38631 11.9725 1 11 1C9.82666 1 9 1.33333 8 2.33333C7 1.33333 6.17333 1 4.99999 1C4.02753 1 3.0949 1.38631 2.40727 2.07394C1.71964 2.76158 1.33333 3.69421 1.33333 4.66667C1.33333 6.2 2.33333 7.36667 3.33333 8.33333L8 13L12.6667 8.33333Z" fill="#DC2626" stroke="#DC2626" stroke-width="1.33333" stroke-linecap="round" stroke-linejoin="round" />
</svg>
<symbol id="icon-happy-1" viewBox="0 0 32 32">
<path d="M16 32c8.837 0 16-7.163 16-16s-7.163-16-16-16c-8.837 0-16 7.163-16 16s7.163 16 16 16zM16 3c7.18 0 13 5.82 13 13s-5.82 13-13 13c-7.18 0-13-5.82-13-13s5.82-13 13-13zM16 18.711c3.623 0 7.070-0.963 10-2.654-0.455 5.576-4.785 9.942-10 9.942s-9.544-4.371-10-9.947c2.93 1.691 6.377 2.658 10 2.658zM8 11c0-1.657 0.895-3 2-3s2 1.343 2 3c0 1.657-0.895 3-2 3s-2-1.343-2-3zM20 11c0-1.657 0.895-3 2-3s2 1.343 2 3c0 1.657-0.895 3-2 3s-2-1.343-2-3z"></path>
</symbol>
<symbol id="icon-SVG-13" viewBox="0 0 32 32">
<path fill="none" stroke="#fafafa" style="stroke: var(--color1, #fafafa)" stroke-linejoin="round" stroke-linecap="round" stroke-miterlimit="4" stroke-width="2.6667" d="M29.334 2.667l-9.333 26.667-5.333-12-12-5.333 26.667-9.333z"></path>
<path fill="none" stroke="#fafafa" style="stroke: var(--color1, #fafafa)" stroke-linejoin="round" stroke-linecap="round" stroke-miterlimit="4" stroke-width="2.6667" d="M29.334 2.667l-14.667 14.667"></path>
</symbol>
<symbol id="icon-SVG-12" viewBox="0 0 32 32">
<path stroke-linejoin="round" stroke-linecap="round" stroke-miterlimit="4" stroke-width="2.6667" d="M16 17.333c0.736 0 1.333-0.597 1.333-1.333s-0.597-1.333-1.333-1.333c-0.736 0-1.333 0.597-1.333 1.333s0.597 1.333 1.333 1.333z"></path>
<path stroke-linejoin="round" stroke-linecap="round" stroke-miterlimit="4" stroke-width="2.6667" d="M16 8c0.736 0 1.333-0.597 1.333-1.333s-0.597-1.333-1.333-1.333c-0.736 0-1.333 0.597-1.333 1.333s0.597 1.333 1.333 1.333z"></path>
<path stroke-linejoin="round" stroke-linecap="round" stroke-miterlimit="4" stroke-width="2.6667" d="M16 26.667c0.736 0 1.333-0.597 1.333-1.333s-0.597-1.333-1.333-1.333c-0.736 0-1.333 0.597-1.333 1.333s0.597 1.333 1.333 1.333z"></path>
</symbol>
<symbol id="icon-vector-down" viewBox="0 0 32 32">
<path d="M0.669 10.104l13.714 15.428c0.894 1.005 2.341 1.005 3.232 0l13.714-15.428c0.893-1.005 0.893-2.633 0-3.636s-2.341-1.005-3.232 0l-12.098 13.61-12.098-13.61c-0.894-1.005-2.341-1.005-3.232 0s-0.894 2.633 0 3.636z"></path>
</symbol>
<symbol id="icon-vector-right" viewBox="0 0 32 32">
<path d="M10.268 31.331l14.999-13.714c0.977-0.894 0.977-2.341 0-3.232l-14.999-13.714c-0.977-0.894-2.56-0.894-3.535 0s-0.977 2.341 0 3.232l13.232 12.098-13.232 12.098c-0.977 0.894-0.977 2.341 0 3.232s2.56 0.894 3.535 0z"></path>
</symbol>
<symbol id="icon-vector-left" viewBox="0 0 32 32">
<path d="M21.732 31.331l-14.999-13.714c-0.977-0.894-0.977-2.341 0-3.232l14.999-13.714c0.977-0.894 2.56-0.894 3.535 0s0.977 2.341 0 3.232l-13.232 12.098 13.232 12.098c0.977 0.894 0.977 2.341 0 3.232s-2.56 0.894-3.535 0z"></path>
</symbol>
<symbol id="icon-video" viewBox="0 0 32 32">
<path fill="none" stroke="currentColor" style="stroke: var(--color1, currentColor)" stroke-linejoin="round" stroke-linecap="round" stroke-miterlimit="4" stroke-width="2.6667" d="M21.334 17.333l6.964 4.643c0.1 0.067 0.217 0.105 0.337 0.111s0.24-0.021 0.347-0.078c0.106-0.057 0.195-0.142 0.257-0.245s0.095-0.222 0.095-0.342v-10.928c0-0.117-0.031-0.233-0.090-0.334s-0.143-0.186-0.245-0.244c-0.102-0.058-0.217-0.089-0.334-0.089s-0.232 0.032-0.334 0.091l-6.997 4.083"></path>
<path fill="none" stroke="currentColor" style="stroke: var(--color1, currentColor)" stroke-linejoin="round" stroke-linecap="round" stroke-miterlimit="4" stroke-width="2.6667" d="M18.666 8h-13.333c-1.473 0-2.667 1.194-2.667 2.667v10.667c0 1.473 1.194 2.667 2.667 2.667h13.333c1.473 0 2.667-1.194 2.667-2.667v-10.667c0-1.473-1.194-2.667-2.667-2.667z"></path>
</symbol>
<symbol id="icon-navigation" viewBox="0 0 32 32">
<path fill="none" stroke="currentColor" style="stroke: var(--color1, currentColor)" stroke-linejoin="round" stroke-linecap="round" stroke-miterlimit="4" stroke-width="2.6667" d="M26.667 13.333c0 8-10.667 16-10.667 16s-10.667-8-10.667-16c0-2.829 1.124-5.542 3.124-7.542s4.713-3.124 7.542-3.124c2.829 0 5.542 1.124 7.543 3.124s3.124 4.714 3.124 7.542z"></path>
<path fill="none" stroke="currentColor" style="stroke: var(--color1, currentColor)" stroke-linejoin="round" stroke-linecap="round" stroke-miterlimit="4" stroke-width="2.6667" d="M16 17.333c2.209 0 4-1.791 4-4s-1.791-4-4-4c-2.209 0-4 1.791-4 4s1.791 4 4 4z"></path>
</symbol>
<symbol id="icon-right2" viewBox="0 0 17 32">
<path d="M13.439 15.874l-13.071-13.693c-0.491-0.498-0.491-1.305 0-1.807 0.491-0.498 1.283-0.498 1.774 0l14.333 14.594c0.491 0.5 0.491 1.308 0 1.807l-14.333 14.594c-0.491 0.5-1.283 0.498-1.774 0-0.491-0.496-0.491-1.305 0-1.807l13.071-13.688z"></path>
</symbol>
<symbol id="icon-left2" viewBox="0 0 17 32">
<path d="M3.403 15.874l13.071-13.693c0.491-0.498 0.491-1.305 0-1.807-0.491-0.498-1.283-0.498-1.774 0l-14.333 14.594c-0.491 0.5-0.491 1.308 0 1.807l14.333 14.594c0.491 0.5 1.283 0.498 1.774 0 0.491-0.496 0.491-1.305 0-1.807l-13.071-13.688z"></path>
</symbol>
<symbol id="icon-medal" viewBox="0 0 24 32">
<path d="M13.042 11.416l4.647-11.416 6.015 2.412-4.722 11.599c-1.624-1.413-3.677-2.351-5.94-2.596zM4.724 14.018l-4.724-11.606 6.015-2.412 4.647 11.417c-2.263 0.247-4.316 1.187-5.938 2.601h0zM11.857 31.743c-5.374 0-9.731-4.324-9.731-9.659s4.357-9.659 9.731-9.659c5.374 0 9.731 4.324 9.731 9.659s-4.357 9.659-9.731 9.659zM11.857 28.523c3.583 0 6.487-2.883 6.487-6.439s-2.905-6.439-6.487-6.439c-3.583 0-6.488 2.883-6.488 6.439s2.905 6.439 6.488 6.439zM11.857 27.45c2.986 0 5.406-2.402 5.406-5.366s-2.421-5.366-5.406-5.366c-2.986 0-5.406 2.402-5.406 5.366s2.42 5.366 5.406 5.366z"></path>
</symbol>
<symbol id="icon-medal2" viewBox="0 0 32 32">
  <path fill="none" stroke="currentColor" style="stroke: var(--color1, currentColor)" stroke-linejoin="round" stroke-linecap="round" stroke-miterlimit="4" stroke-width="2.6667" d="M20.636 17.187l2.02 11.368c0.023 0.134 0.004 0.272-0.054 0.394s-0.151 0.225-0.269 0.293-0.253 0.099-0.388 0.088c-0.135-0.011-0.264-0.063-0.369-0.149l-4.773-3.583c-0.231-0.172-0.51-0.265-0.798-0.265s-0.568 0.093-0.798 0.265l-4.781 3.581c-0.105 0.086-0.234 0.138-0.369 0.149s-0.27-0.02-0.388-0.088-0.211-0.17-0.269-0.293c-0.058-0.123-0.077-0.26-0.055-0.394l2.019-11.368"></path>
  <path fill="none" stroke="currentColor" style="stroke: var(--color1, currentColor)" stroke-linejoin="round" stroke-linecap="round" stroke-miterlimit="4" stroke-width="2.6667" d="M16 18.667c4.418 0 8-3.582 8-8s-3.582-8-8-8c-4.418 0-8 3.582-8 8s3.582 8 8 8z"></path>
</symbol>
</defs>
</svg>
